<svg width="308" height="48" viewBox="0 0 308 48" fill="none" xmlns="http://www.w3.org/2000/svg">
<path d="M9.08203 38V14.6797H0.9375V9.81641H23.1445V14.6797H14.9805V38H9.08203ZM38.2227 38.4883C35.8138 38.4883 33.724 38.0521 31.9531 37.1797C30.1953 36.3073 28.8281 35.0898 27.8516 33.5273C26.888 31.9518 26.4062 30.1224 26.4062 28.0391V9.81641H32.3047V27.5117C32.3047 28.7227 32.5326 29.7773 32.9883 30.6758C33.457 31.5612 34.1276 32.2513 35 32.7461C35.8854 33.2409 36.9596 33.4883 38.2227 33.4883C39.4857 33.4883 40.5534 33.2409 41.4258 32.7461C42.3112 32.2513 42.9818 31.5612 43.4375 30.6758C43.8932 29.7773 44.1211 28.7227 44.1211 27.5117V9.81641H50.0195V28.0391C50.0195 30.1224 49.5378 31.9518 48.5742 33.5273C47.6237 35.0898 46.263 36.3073 44.4922 37.1797C42.7344 38.0521 40.6445 38.4883 38.2227 38.4883ZM54.7266 38V9.81641H66.3672C68.4766 9.81641 70.2799 10.1745 71.7773 10.8906C73.2878 11.6068 74.4401 12.6419 75.2344 13.9961C76.0417 15.3372 76.4453 16.9518 76.4453 18.8398V18.8789C76.4453 20.7279 75.9831 22.375 75.0586 23.8203C74.1471 25.2656 72.9102 26.2943 71.3477 26.9062L77.2852 38H70.6055L65.3516 27.7852C65.3125 27.7852 65.2669 27.7852 65.2148 27.7852C65.1628 27.7852 65.1107 27.7852 65.0586 27.7852H60.625V38H54.7266ZM60.625 23.3125H65.7227C67.194 23.3125 68.3398 22.9219 69.1602 22.1406C69.9935 21.3464 70.4102 20.2591 70.4102 18.8789V18.8398C70.4102 17.4857 69.9805 16.4115 69.1211 15.6172C68.2617 14.8229 67.1029 14.4258 65.6445 14.4258H60.625V23.3125ZM80.3516 38V9.81641H98.8086V14.6797H86.25V22.2383H97.7148V26.9062H86.25V38H80.3516ZM110.234 38V9.81641H115.391L130.723 31.8672L125.781 28.1367H128.242V9.81641H134.121V38H129.004L113.652 15.8125L118.594 19.543H116.113V38H110.234ZM146.758 38V9.81641H152.656V33.1367H164.98V38H146.758ZM177.324 38.4297C175.202 38.4297 173.366 37.9935 171.816 37.1211C170.267 36.2487 169.069 34.9987 168.223 33.3711C167.376 31.7435 166.953 29.7969 166.953 27.5312V27.4922C166.953 25.2396 167.383 23.306 168.242 21.6914C169.102 20.0638 170.306 18.8138 171.855 17.9414C173.405 17.069 175.221 16.6328 177.305 16.6328C179.401 16.6328 181.224 17.069 182.773 17.9414C184.336 18.8008 185.547 20.0443 186.406 21.6719C187.266 23.2865 187.695 25.2266 187.695 27.4922V27.5312C187.695 29.8099 187.266 31.763 186.406 33.3906C185.56 35.0182 184.362 36.2682 182.812 37.1406C181.263 38 179.434 38.4297 177.324 38.4297ZM177.344 33.957C178.268 33.957 179.069 33.7096 179.746 33.2148C180.436 32.707 180.964 31.9779 181.328 31.0273C181.706 30.0638 181.895 28.8984 181.895 27.5312V27.4922C181.895 26.138 181.706 24.9857 181.328 24.0352C180.951 23.0846 180.417 22.362 179.727 21.8672C179.036 21.3594 178.229 21.1055 177.305 21.1055C176.393 21.1055 175.592 21.3594 174.902 21.8672C174.225 22.362 173.698 23.0846 173.32 24.0352C172.943 24.9857 172.754 26.138 172.754 27.4922V27.5312C172.754 28.8984 172.936 30.0638 173.301 31.0273C173.678 31.9779 174.212 32.707 174.902 33.2148C175.592 33.7096 176.406 33.957 177.344 33.957ZM190.645 38V17.0625H196.348V20.5H196.465C197.012 19.3021 197.819 18.3581 198.887 17.668C199.954 16.9779 201.276 16.6328 202.852 16.6328C205.156 16.6328 206.934 17.3294 208.184 18.7227C209.447 20.1029 210.078 22.0234 210.078 24.4844V38H204.375V25.6562C204.375 24.2891 204.049 23.2344 203.398 22.4922C202.76 21.737 201.803 21.3594 200.527 21.3594C199.681 21.3594 198.945 21.5547 198.32 21.9453C197.695 22.3229 197.207 22.8568 196.855 23.5469C196.517 24.237 196.348 25.0443 196.348 25.9688V38H190.645ZM219.922 38.332C218.529 38.332 217.305 38.0651 216.25 37.5312C215.195 36.9844 214.368 36.2357 213.77 35.2852C213.184 34.3216 212.891 33.2279 212.891 32.0039V31.9648C212.891 30.6888 213.21 29.6016 213.848 28.7031C214.486 27.7917 215.41 27.0755 216.621 26.5547C217.832 26.0339 219.303 25.7148 221.035 25.5977L229.199 25.0898V28.6445L221.895 29.1133C220.801 29.1784 219.967 29.4388 219.395 29.8945C218.822 30.3372 218.535 30.9297 218.535 31.6719V31.7109C218.535 32.4792 218.828 33.0846 219.414 33.5273C220 33.957 220.788 34.1719 221.777 34.1719C222.624 34.1719 223.379 34.0091 224.043 33.6836C224.72 33.3451 225.247 32.8893 225.625 32.3164C226.016 31.7305 226.211 31.0729 226.211 30.3438V23.9961C226.211 23.0716 225.918 22.3424 225.332 21.8086C224.746 21.2617 223.893 20.9883 222.773 20.9883C221.706 20.9883 220.859 21.2096 220.234 21.6523C219.609 22.0951 219.225 22.6549 219.082 23.332L219.043 23.5078H213.828L213.848 23.2734C213.952 21.9844 214.375 20.8385 215.117 19.8359C215.872 18.8333 216.914 18.0521 218.242 17.4922C219.583 16.9193 221.172 16.6328 223.008 16.6328C224.818 16.6328 226.387 16.9258 227.715 17.5117C229.043 18.0846 230.072 18.8984 230.801 19.9531C231.543 21.0078 231.914 22.2383 231.914 23.6445V38H226.211V34.875H226.094C225.703 35.5911 225.195 36.2096 224.57 36.7305C223.958 37.2383 223.262 37.6354 222.48 37.9219C221.699 38.1953 220.846 38.332 219.922 38.332ZM241.016 38L233.77 17.0625H239.863L244.238 32.9609H244.355L248.672 17.0625H254.629L247.441 38H241.016ZM262.344 38.332C260.951 38.332 259.727 38.0651 258.672 37.5312C257.617 36.9844 256.79 36.2357 256.191 35.2852C255.605 34.3216 255.312 33.2279 255.312 32.0039V31.9648C255.312 30.6888 255.632 29.6016 256.27 28.7031C256.908 27.7917 257.832 27.0755 259.043 26.5547C260.254 26.0339 261.725 25.7148 263.457 25.5977L271.621 25.0898V28.6445L264.316 29.1133C263.223 29.1784 262.389 29.4388 261.816 29.8945C261.243 30.3372 260.957 30.9297 260.957 31.6719V31.7109C260.957 32.4792 261.25 33.0846 261.836 33.5273C262.422 33.957 263.21 34.1719 264.199 34.1719C265.046 34.1719 265.801 34.0091 266.465 33.6836C267.142 33.3451 267.669 32.8893 268.047 32.3164C268.438 31.7305 268.633 31.0729 268.633 30.3438V23.9961C268.633 23.0716 268.34 22.3424 267.754 21.8086C267.168 21.2617 266.315 20.9883 265.195 20.9883C264.128 20.9883 263.281 21.2096 262.656 21.6523C262.031 22.0951 261.647 22.6549 261.504 23.332L261.465 23.5078H256.25L256.27 23.2734C256.374 21.9844 256.797 20.8385 257.539 19.8359C258.294 18.8333 259.336 18.0521 260.664 17.4922C262.005 16.9193 263.594 16.6328 265.43 16.6328C267.24 16.6328 268.809 16.9258 270.137 17.5117C271.465 18.0846 272.493 18.8984 273.223 19.9531C273.965 21.0078 274.336 22.2383 274.336 23.6445V38H268.633V34.875H268.516C268.125 35.5911 267.617 36.2096 266.992 36.7305C266.38 37.2383 265.684 37.6354 264.902 37.9219C264.121 38.1953 263.268 38.332 262.344 38.332ZM278.164 38V9.81641H283.867V38H278.164ZM293.945 38.332C292.552 38.332 291.328 38.0651 290.273 37.5312C289.219 36.9844 288.392 36.2357 287.793 35.2852C287.207 34.3216 286.914 33.2279 286.914 32.0039V31.9648C286.914 30.6888 287.233 29.6016 287.871 28.7031C288.509 27.7917 289.434 27.0755 290.645 26.5547C291.855 26.0339 293.327 25.7148 295.059 25.5977L303.223 25.0898V28.6445L295.918 29.1133C294.824 29.1784 293.991 29.4388 293.418 29.8945C292.845 30.3372 292.559 30.9297 292.559 31.6719V31.7109C292.559 32.4792 292.852 33.0846 293.438 33.5273C294.023 33.957 294.811 34.1719 295.801 34.1719C296.647 34.1719 297.402 34.0091 298.066 33.6836C298.743 33.3451 299.271 32.8893 299.648 32.3164C300.039 31.7305 300.234 31.0729 300.234 30.3438V23.9961C300.234 23.0716 299.941 22.3424 299.355 21.8086C298.77 21.2617 297.917 20.9883 296.797 20.9883C295.729 20.9883 294.883 21.2096 294.258 21.6523C293.633 22.0951 293.249 22.6549 293.105 23.332L293.066 23.5078H287.852L287.871 23.2734C287.975 21.9844 288.398 20.8385 289.141 19.8359C289.896 18.8333 290.938 18.0521 292.266 17.4922C293.607 16.9193 295.195 16.6328 297.031 16.6328C298.841 16.6328 300.41 16.9258 301.738 17.5117C303.066 18.0846 304.095 18.8984 304.824 19.9531C305.566 21.0078 305.938 22.2383 305.938 23.6445V38H300.234V34.875H300.117C299.727 35.5911 299.219 36.2096 298.594 36.7305C297.982 37.2383 297.285 37.6354 296.504 37.9219C295.723 38.1953 294.87 38.332 293.945 38.332Z" fill="#34A853"/>
</svg>
